<svg width="294" height="50" viewBox="0 0 294 50" fill="none" xmlns="http://www.w3.org/2000/svg">
<g clip-path="url(#clip0_6_70)">
<path d="M3.5059 20.6902C11.2078 20.6975 18.9097 20.6902 26.608 20.6902C26.6985 20.6902 26.7891 20.6902 26.876 20.683C27.9297 20.5744 28.6973 20.0533 29.1029 19.0689C29.5012 18.1026 29.3383 17.187 28.6503 16.4089C27.9514 15.6127 27.0498 15.3268 26.0214 15.6236C24.812 15.9747 24.2399 16.8649 24.1023 18.0701H22.433C22.3931 16.6623 23.1572 15.3196 24.4064 14.48C24.6165 14.3389 24.8337 14.0819 24.8808 13.8431C25.4131 11.1831 23.7148 8.57377 21.0497 7.91149C18.4209 7.25645 15.6798 8.81263 14.8868 11.4038C14.7419 11.8791 14.8976 12.2338 15.3539 12.4678C16.5416 13.0758 17.3418 14.4076 17.1608 15.5006H15.5639C15.2634 14.3461 14.6804 13.7924 13.7824 13.796C12.8843 13.796 12.3267 14.328 12.0081 15.4861H10.3641C10.3569 14.0711 11.2114 12.837 12.5693 12.3158C12.8518 12.2073 12.9894 12.0842 13.04 11.7657C13.3152 10.1082 14.1191 8.74025 15.4046 7.66178C15.6906 7.42293 16.002 7.20941 16.3098 6.97779C16.2736 6.89817 16.2483 6.83303 16.2121 6.77512C14.789 4.33953 11.856 3.0403 9.00261 3.58316C5.31641 4.28524 2.81428 8.00921 3.56021 11.6753C3.61453 11.9503 3.71954 12.0842 4.03457 12.1349C4.52703 12.2109 5.02311 12.3303 5.48298 12.5185C7.38039 13.3038 8.73827 15.392 8.56446 17.2232H6.92414C6.88431 16.988 6.85534 16.7745 6.81189 16.5645C6.43893 14.7985 4.80585 13.6042 3.05327 13.8177C1.23914 14.0385 -0.0861537 15.6091 0.00437183 17.444C0.0948973 19.268 1.60486 20.6902 3.5059 20.6902Z" fill="black"/>
<path d="M26.9991 13.8068C29.2079 13.995 30.9207 15.7177 31.0257 17.8637C31.1343 20.0786 29.6424 21.993 27.4264 22.326C26.4053 22.478 25.3515 22.3984 24.3123 22.4165C23.6895 22.4273 23.0703 22.4165 22.4149 22.4165C22.4149 23.238 22.4149 23.9907 22.4149 24.7399C22.4149 25.5795 22.7046 25.8618 23.5555 25.8618C25.7462 25.8618 27.9369 25.8618 30.1277 25.8618C31.1234 25.8618 31.902 26.296 32.4053 27.1501C33.4192 28.8692 32.1844 31.008 30.153 31.0261C27.3322 31.0478 24.5151 31.0261 21.6943 31.0333C21.0715 31.0333 20.6804 31.3916 20.6949 31.9127C20.7058 32.4158 21.0824 32.7415 21.6798 32.7524C22.165 32.7596 22.6503 32.7524 23.1355 32.7524C24.7758 32.7632 25.8549 33.8489 25.8621 35.4992C25.8657 36.7007 25.8621 37.9058 25.8621 39.1073V39.6393H29.8452C30.7541 37.3955 32.4089 35.7018 34.1108 34.0407C34.6757 33.487 35.2333 32.9261 35.7765 32.3543C37.5761 30.4688 38.6697 28.2648 38.7783 25.6301C39.0462 19.0001 34.5996 13.1192 28.1433 11.5739C27.6292 11.4509 27.1005 11.3857 26.6044 11.2989C26.6551 12.171 26.6986 12.9672 26.7456 13.7779C26.8253 13.7851 26.9122 13.7924 27.0027 13.7996L26.9991 13.8068Z" fill="black"/>
<path d="M20.054 39.4041C20.1011 39.5127 20.2387 39.6575 20.3364 39.6611C21.5857 39.6792 22.8385 39.6719 24.1313 39.6719C24.1313 38.17 24.1457 36.7369 24.124 35.3074C24.1168 34.8116 23.7583 34.5076 23.2296 34.4931C22.6539 34.475 22.0818 34.5004 21.506 34.4859C20.0721 34.4461 18.9532 33.2952 18.9641 31.8802C18.9749 30.4905 20.0902 29.3578 21.4952 29.3216C22.1035 29.3071 22.7154 29.3179 23.3274 29.3179C25.5543 29.3179 27.7812 29.3179 30.0082 29.3179C30.6962 29.3179 31.1452 28.8583 31.0076 28.2974C30.8845 27.7835 30.5151 27.5917 30.0045 27.5953C27.7957 27.6025 25.5869 27.6025 23.3781 27.5953C21.7993 27.5881 20.7021 26.4915 20.6877 24.9208C20.6804 24.1138 20.6877 23.3068 20.6877 22.4563H11.4685C10.8312 25.8039 11.273 28.8945 13.518 31.5364C14.5283 32.7234 15.6617 33.8055 16.7589 34.9166C18.0733 36.2556 19.2791 37.667 20.0504 39.4041H20.054Z" fill="black"/>
<path d="M47.4543 29.5568C47.0777 29.1515 46.7048 28.7498 46.3282 28.3372C45.2962 29.2275 44.1447 29.5604 42.8303 29.1117C41.5267 28.6665 40.8134 27.6894 40.5309 26.477C40.2086 27.6785 39.8755 28.9162 39.546 30.1395C43.4712 30.2444 45.4845 33.2011 45.6728 35.7562C45.8864 38.6622 43.9781 41.3113 41.1646 42.0388C39.7524 42.4043 38.38 42.2812 37.0765 41.6515C35.1573 40.7214 34.0638 39.1436 33.651 36.9939C32.6733 38.047 31.9165 39.1218 31.4313 40.374C31.377 40.5115 31.4132 40.7251 31.4892 40.859C31.8224 41.4416 31.9853 42.0424 31.8405 42.7155C31.8187 42.8241 31.826 42.9833 31.8912 43.0557C32.2171 43.4248 32.5683 43.7759 32.9123 44.1306C34.0819 43.1172 35.313 42.8132 36.6782 43.3814C38.0578 43.9568 38.7095 45.0643 38.8182 46.5119H40.4911C40.8134 43.3489 43.4965 42.2487 46.2956 44.0147C46.712 43.6275 47.1139 43.2548 47.5267 42.8748C46.5672 41.7746 46.263 40.5441 46.8315 39.1797C47.4036 37.8009 48.508 37.1422 49.9673 37.0373V35.3617C47.0741 35.2748 45.3758 31.9055 47.4579 29.5496L47.4543 29.5568Z" fill="black"/>
<path d="M49.8622 4.13686C49.3915 2.02336 48.0336 0.644513 45.9262 0.152328C43.4349 -0.430333 41.5918 0.720513 40.1072 2.54811C42.5767 5.0199 45.01 7.45549 47.4542 9.90556C49.2539 8.42901 50.4126 6.61588 49.8622 4.13686Z" fill="black"/>
<path d="M3.71594 39.6538C3.03881 41.4054 2.35805 43.157 1.70265 44.9159C1.64833 45.057 1.74248 45.3285 1.86197 45.4479C2.73464 46.349 3.63265 47.2248 4.50894 48.1223C4.7262 48.3431 4.90363 48.401 5.2078 48.2779C6.36652 47.8075 7.54336 47.3696 8.70932 46.9208C9.28869 46.6964 9.86805 46.4721 10.3967 46.2694C8.16617 44.0401 5.95735 41.8289 3.7449 39.6177C3.75939 39.5996 3.7268 39.6249 3.71594 39.6538Z" fill="black"/>
<path d="M4.8457 37.9203C5.81252 38.8866 6.81916 39.8927 7.74252 40.8119C9.78115 38.7708 11.8669 36.6863 13.9272 34.6234C13.0546 33.6101 12.1348 32.5352 11.2513 31.5074C9.11127 33.6499 6.9459 35.8141 4.8457 37.9167V37.9203Z" fill="black"/>
<path d="M9.18372 42.2342C10.1397 43.1932 11.1463 44.2029 12.1276 45.1873C14.054 43.2584 16.0311 41.286 18.1313 39.1834C17.226 38.0904 16.3099 36.9902 15.4589 35.9588C13.2718 38.1483 11.1861 40.2293 9.18372 42.2306V42.2342Z" fill="black"/>
<path d="M35.7656 34.8586C35.6099 35.036 35.4651 35.2676 35.4252 35.4956C35.1464 37.1639 35.6823 38.5536 37.004 39.5851C38.3981 40.678 39.9587 40.8409 41.5484 40.0628C43.1199 39.2919 43.8767 37.9529 43.96 36.4763C43.9636 33.7404 41.8598 31.7391 39.3866 31.9309C38.9195 31.967 38.3655 32.1227 38.036 32.4267C37.2213 33.1758 36.5043 34.0335 35.7656 34.8623V34.8586ZM39.7234 33.6282C41.1464 33.6607 42.2834 34.8767 42.2364 36.3099C42.1893 37.7104 40.9944 38.8287 39.5822 38.7961C38.1591 38.7599 37.0257 37.5476 37.0728 36.1144C37.1199 34.7175 38.3148 33.5956 39.727 33.6318L39.7234 33.6282Z" fill="black"/>
<path d="M40.5164 10.8682C39.2454 12.1421 37.931 13.4558 36.6708 14.7152C37.4494 15.8806 38.2532 17.0821 39.0209 18.2329C40.4874 16.7672 41.9901 15.2617 43.453 13.7996C42.4862 12.8333 41.4759 11.8273 40.5164 10.8682Z" fill="black"/>
<path d="M39.144 9.47492C38.1663 8.5014 37.1669 7.50618 36.2001 6.54352C34.7372 8.00922 33.2345 9.51111 31.7716 10.9732C32.9231 11.744 34.1216 12.5475 35.2369 13.293C36.5477 12.0118 37.873 10.7162 39.144 9.47492Z" fill="black"/>
<path d="M46.0457 11.2772C43.5906 8.82348 41.1501 6.38064 38.7602 3.9921C38.3764 4.36124 37.9419 4.78104 37.5508 5.15742C39.9769 7.58577 42.4211 10.0286 44.8725 12.4787C45.2563 12.0842 45.68 11.6499 46.0457 11.2735V11.2772Z" fill="black"/>
<path d="M29.0921 41.3801C26.3618 41.3801 23.6352 41.3801 20.905 41.3801C20.2278 41.3801 19.8331 41.7058 19.8331 42.2414C19.8331 42.777 20.2278 43.0991 20.9086 43.1027C22.2737 43.1064 23.6388 43.1027 25.0039 43.1027C26.3691 43.1027 27.7342 43.1027 29.0993 43.1027C29.7765 43.1027 30.1748 42.777 30.1711 42.2414C30.1711 41.7058 29.7765 41.3837 29.0957 41.3801H29.0921Z" fill="black"/>
<path d="M29.0921 44.829C27.7269 44.8254 26.3618 44.829 24.9967 44.829C23.6316 44.829 22.2664 44.829 20.9013 44.829C20.2206 44.829 19.8259 45.1511 19.8259 45.6867C19.8259 46.2223 20.2206 46.5481 20.8977 46.5481C23.6279 46.5481 26.3546 46.5481 29.0848 46.5481C29.7619 46.5481 30.1603 46.226 30.1603 45.6867C30.1603 45.1511 29.7656 44.8254 29.0884 44.8254L29.0921 44.829Z" fill="black"/>
<path d="M25.1452 49.9933C26.3582 49.9029 27.3033 49.3745 28.0094 48.2997H22.0673C22.4548 49.3057 23.972 50.0802 25.1452 49.9933Z" fill="black"/>
<path d="M0.0658252 49.1791C0.00788887 49.36 0.0766883 49.6676 0.207045 49.7979C0.337402 49.9282 0.645189 49.9897 0.829861 49.9318C1.55769 49.693 2.26741 49.3962 2.94816 49.1356C2.26379 48.448 1.58303 47.7677 0.869692 47.0511C0.605357 47.7387 0.308434 48.4516 0.0694462 49.1791H0.0658252Z" fill="black"/>
<path d="M39.6473 37.0662C40.1144 37.0699 40.5091 36.6826 40.5128 36.2158C40.5164 35.7489 40.1289 35.3544 39.6618 35.3508C39.1947 35.3472 38.8036 35.7308 38.8 36.2013C38.7964 36.6681 39.1838 37.0626 39.651 37.0662H39.6473Z" fill="black"/>
<path d="M89.1791 27.525H84.5878L74.1467 11.308V27.525H69V1.10269H73.5913L84.0324 17.2808V1.10269H89.1791V27.5212V27.525Z" fill="black"/>
<path d="M110.465 17.8415C110.465 19.6949 110.31 21.1978 110.003 22.3504C109.696 23.499 109.121 24.5074 108.282 25.3757C106.752 26.9604 104.751 27.7509 102.285 27.7509C99.8183 27.7509 97.8528 26.9604 96.3263 25.3757C95.4873 24.4841 94.9124 23.4639 94.6055 22.3153C94.2987 21.1667 94.1433 19.6754 94.1433 17.8454C94.1433 16.0154 94.2987 14.5319 94.6055 13.3911C94.9124 12.2541 95.4873 11.2379 96.3263 10.3501C97.8567 8.76539 99.8416 7.97498 102.285 7.97498C104.728 7.97498 106.802 8.76539 108.282 10.3501C109.121 11.2418 109.696 12.2541 110.003 13.3911C110.31 14.528 110.465 16.0154 110.465 17.8454V17.8415ZM105.653 17.8415C105.653 15.443 105.284 13.8855 104.542 13.1652C103.975 12.5967 103.221 12.3125 102.285 12.3125C101.349 12.3125 100.63 12.5967 100.063 13.1652C99.3211 13.8817 98.9521 15.443 98.9521 17.8415C98.9521 20.24 99.3211 21.8364 100.063 22.5528C100.63 23.1213 101.372 23.4055 102.285 23.4055C103.198 23.4055 103.975 23.1213 104.542 22.5528C105.284 21.8364 105.653 20.2634 105.653 17.8415Z" fill="black"/>
<path d="M142.301 27.5251H137.489V15.8363C137.489 14.6254 137.174 13.7337 136.545 13.1653C135.915 12.5968 135.17 12.3125 134.303 12.3125C133.437 12.3125 132.688 12.589 132.047 13.1458C131.406 13.7026 131.083 14.5631 131.083 15.7234V27.5251H126.271V15.8363C126.271 14.6254 125.956 13.7337 125.327 13.1653C124.697 12.5968 123.952 12.3125 123.085 12.3125C122.219 12.3125 121.439 12.5968 120.809 13.1653C120.18 13.7337 119.865 14.6254 119.865 15.8363V27.5251H115.053V8.19306H119.753V9.97246C121.035 8.63693 122.639 7.96722 124.565 7.96722C126.787 7.96722 128.489 8.78489 129.673 10.4163C131.227 8.78489 133.154 7.96722 135.449 7.96722C137.473 7.96722 139.054 8.5357 140.188 9.67265C141.594 11.0821 142.297 12.9122 142.297 15.1627V27.5212L142.301 27.5251Z" fill="black"/>
<path d="M162.069 27.525H157.369V25.8547C156.704 26.5244 156.017 26.9994 155.314 27.2836C154.611 27.5679 153.717 27.7119 152.63 27.7119C150.482 27.7119 148.843 27.1435 147.708 26.0065C146.648 24.8929 146.116 23.4445 146.116 21.6651C146.116 20.0337 146.683 18.6903 147.817 17.6391C148.951 16.5878 150.606 16.0621 152.777 16.0621H157.256V15.0965C157.256 14.0335 156.972 13.2587 156.405 12.7759C155.838 12.2931 154.925 12.0517 153.667 12.0517C152.16 12.0517 150.928 12.6084 149.965 13.722L146.928 10.7161C147.864 9.67652 148.846 8.96009 149.872 8.56294C150.897 8.16578 152.222 7.9711 153.853 7.9711C159.33 7.9711 162.073 10.2489 162.073 14.8006V27.5289L162.069 27.525ZM157.256 20.3997V19.36H153.589C151.69 19.36 150.738 20.1037 150.738 21.5872C150.738 23.0707 151.713 23.7755 153.663 23.7755C154.922 23.7755 155.869 23.4679 156.514 22.8488C157.007 22.4282 157.256 21.6106 157.256 20.3997Z" fill="black"/>
<path d="M183.277 27.5251H178.464V15.8363C178.464 14.6254 178.15 13.7337 177.521 13.1653C176.891 12.5968 176.145 12.3125 175.279 12.3125C174.413 12.3125 173.632 12.5968 173.003 13.1653C172.374 13.7337 172.059 14.6254 172.059 15.8363V27.5251H167.246V8.19306H171.947V9.97246C173.205 8.63693 174.809 7.96722 176.759 7.96722C178.709 7.96722 180.177 8.5357 181.312 9.67265C182.621 10.9848 183.273 12.8148 183.273 15.1627V27.5212L183.277 27.5251Z" fill="black"/>
<path d="M193.31 5.70499L188.276 9.52857V1.10269H193.31V5.70499Z" fill="black"/>
<path d="M210.118 21.4392C210.118 23.4912 209.353 25.0564 207.822 26.135C206.292 27.2135 204.33 27.7509 201.937 27.7509C200.158 27.7509 198.632 27.564 197.346 27.1941C196.064 26.8242 194.852 26.0805 193.718 24.9669L196.864 21.813C198.049 23.024 199.762 23.6314 202.011 23.6314C202.947 23.6314 203.751 23.4639 204.416 23.1291C205.084 22.7942 205.414 22.2958 205.414 21.6261C205.414 20.5632 204.734 19.9674 203.378 19.8467L200.267 19.5508C196.565 19.1809 194.716 17.3743 194.716 14.1347C194.716 12.2035 195.439 10.6966 196.884 9.60642C198.329 8.52009 200.085 7.97498 202.159 7.97498C205.441 7.97498 207.896 8.73034 209.524 10.2372L206.564 13.2431C205.6 12.3787 204.109 11.9426 202.085 11.9426C201.172 11.9426 200.489 12.1217 200.03 12.4799C199.572 12.8382 199.347 13.2781 199.347 13.796C199.347 14.7616 200.015 15.3184 201.347 15.4664L204.385 15.7623C208.211 16.1322 210.122 18.0245 210.122 21.4392H210.118Z" fill="black"/>
<path d="M242.214 19.9168C242.214 22.3153 241.472 24.1843 239.992 25.5198C238.512 26.8553 236.562 27.525 234.142 27.525H223.111V1.10269H233.7C236.24 1.10269 238.233 1.7724 239.678 3.10793C241.123 4.44345 241.845 6.25011 241.845 8.524C241.845 9.85953 241.507 11.0043 240.827 11.9582C240.148 12.9122 239.402 13.5858 238.586 13.979C241.006 15.116 242.214 17.0978 242.214 19.9168ZM235.809 10.9536C236.399 10.3969 236.698 9.66095 236.698 8.74594C236.698 7.83093 236.403 7.09503 235.809 6.53824C235.214 5.98144 234.375 5.70499 233.292 5.70499H228.258V11.7908H233.292C234.375 11.7908 235.218 11.5143 235.809 10.9575V10.9536ZM236.178 21.9922C236.768 21.3731 237.067 20.5943 237.067 19.656C237.067 18.7176 236.772 17.9428 236.178 17.3353C235.584 16.7279 234.733 16.4281 233.622 16.4281H228.254V22.9227H233.622C234.733 22.9227 235.584 22.6151 236.178 21.9961V21.9922Z" fill="black"/>
<path d="M255.277 27.525H252.539C250.686 27.525 249.287 26.9799 248.336 25.8936C247.384 24.8073 246.91 23.5068 246.91 21.9961V1.10269H251.723V21.6962C251.723 22.8604 252.29 23.4406 253.424 23.4406H255.273V27.5212L255.277 27.525Z" fill="black"/>
<path d="M274.271 17.8415C274.271 19.6949 274.116 21.1978 273.809 22.3504C273.502 23.499 272.927 24.5074 272.088 25.3757C270.558 26.9604 268.558 27.7509 266.091 27.7509C263.624 27.7509 261.659 26.9604 260.132 25.3757C259.293 24.4841 258.719 23.4639 258.412 22.3153C258.105 21.1667 257.949 19.6754 257.949 17.8454C257.949 16.0154 258.105 14.5319 258.412 13.3911C258.719 12.2541 259.293 11.2379 260.132 10.3501C261.663 8.76539 263.648 7.97498 266.091 7.97498C268.534 7.97498 270.608 8.76539 272.088 10.3501C272.927 11.2418 273.502 12.2541 273.809 13.3911C274.116 14.528 274.271 16.0154 274.271 17.8454V17.8415ZM269.459 17.8415C269.459 15.443 269.09 13.8855 268.348 13.1652C267.781 12.5967 267.027 12.3125 266.091 12.3125C265.155 12.3125 264.436 12.5967 263.869 13.1652C263.127 13.8817 262.758 15.443 262.758 17.8415C262.758 20.24 263.127 21.8364 263.869 22.5528C264.436 23.1213 265.178 23.4055 266.091 23.4055C267.004 23.4055 267.781 23.1213 268.348 22.5528C269.09 21.8364 269.459 20.2634 269.459 17.8415Z" fill="black"/>
<path d="M294 26.8203C294 29.1721 293.227 31.0916 291.685 32.5907C290.143 34.0859 288.088 34.8373 285.52 34.8373C283.99 34.8373 282.681 34.6504 281.597 34.2805C280.51 33.9106 279.488 33.2526 278.525 32.3142L281.524 29.2733C282.533 30.2623 283.792 30.7568 285.299 30.7568C286.631 30.7568 287.614 30.3674 288.243 29.5887C288.873 28.8099 289.187 27.8638 289.187 26.7502V24.7839C288.026 26.0688 286.495 26.7152 284.596 26.7152C282.697 26.7152 281.139 26.1467 280.005 25.0097C279.166 24.1687 278.63 23.1719 278.393 22.0233C278.16 20.8747 278.039 19.3094 278.039 17.3276C278.039 15.3457 278.156 13.7921 278.393 12.6513C278.626 11.5143 279.166 10.5253 280.005 9.6843C281.139 8.54736 282.681 7.97888 284.631 7.97888C286.581 7.97888 288.1 8.66027 289.331 10.0192V8.20082H293.996V26.8281L294 26.8203ZM289.187 17.3198C289.187 15.7623 288.978 14.5358 288.558 13.6442C288.139 12.7525 287.288 12.3086 286.002 12.3086C285.311 12.3086 284.748 12.4371 284.316 12.698C283.885 12.9589 283.563 13.3482 283.353 13.8661C283.143 14.3839 283.007 14.9057 282.945 15.4236C282.883 15.9414 282.852 16.5722 282.852 17.3159C282.852 18.0596 282.883 18.6903 282.945 19.2082C283.007 19.726 283.135 20.2478 283.334 20.7657C283.532 21.2835 283.85 21.6807 284.297 21.9532C284.74 22.2258 285.307 22.3621 285.998 22.3621C286.69 22.3621 287.257 22.2258 287.7 21.9532C288.142 21.6807 288.465 21.2835 288.663 20.7657C288.861 20.2478 288.997 19.726 289.071 19.2082C289.145 18.6903 289.183 18.0596 289.183 17.3159L289.187 17.3198Z" fill="black"/>
<path d="M74.6556 39.1749C74.7294 39.7044 74.7644 40.4286 74.7644 41.3514C74.7644 42.2742 74.7294 42.9984 74.6556 43.528C74.5818 44.0575 74.4148 44.5092 74.1506 44.8907C73.5952 45.6889 72.83 46.09 71.8511 46.09H69.0039V36.6128H71.8511C72.83 36.6128 73.5991 37.0139 74.1506 37.8121C74.4148 38.1936 74.5857 38.6492 74.6556 39.1749ZM73.4553 43.1814C73.5097 42.7687 73.5369 42.1574 73.5369 41.3514C73.5369 40.5454 73.5097 39.9341 73.4553 39.5214C73.401 39.1087 73.2844 38.7816 73.1019 38.5441C72.7834 38.108 72.3211 37.8899 71.7113 37.8899H70.2314V44.8129H71.7113C72.3172 44.8129 72.7834 44.5948 73.1019 44.1587C73.2844 43.9173 73.401 43.5942 73.4553 43.1814Z" fill="black"/>
<path d="M81.0492 43.1113H77.3047C77.3047 43.7071 77.4329 44.1704 77.6854 44.5014C77.9417 44.8323 78.303 44.9998 78.773 44.9998C79.0837 44.9998 79.344 44.9452 79.546 44.8401C79.748 44.735 79.9577 44.5559 80.1713 44.3067L80.9133 45.1205C80.6025 45.4826 80.284 45.7512 79.9616 45.9187C79.6392 46.0861 79.2352 46.1718 78.7497 46.1718C77.9612 46.1718 77.3319 45.8953 76.858 45.3463C76.388 44.7973 76.1511 43.9173 76.1511 42.7103C76.1511 41.6279 76.3725 40.7829 76.8114 40.1755C77.2503 39.5681 77.8485 39.2644 78.5982 39.2644C79.3479 39.2644 79.9655 39.5603 80.3966 40.1561C80.8278 40.7518 81.0453 41.5461 81.0453 42.539V43.1113H81.0492ZM79.8994 42.1652C79.8761 41.7641 79.8218 41.4604 79.7402 41.2463C79.5188 40.6778 79.142 40.3936 78.6021 40.3936C78.0622 40.3936 77.6737 40.6778 77.4523 41.2463C77.363 41.476 77.3125 41.7836 77.3047 42.1652H79.8994Z" fill="black"/>
<path d="M86.8213 39.3423L84.7044 46.09H83.7605L81.6435 39.3423H82.8748L84.2421 44.0925L85.5977 39.3423H86.8291H86.8213Z" fill="black"/>
<path d="M92.3215 43.1113H88.577C88.577 43.7071 88.7052 44.1704 88.9577 44.5014C89.2101 44.8323 89.5753 44.9998 90.0453 44.9998C90.356 44.9998 90.6163 44.9452 90.8182 44.8401C91.0241 44.735 91.2339 44.5559 91.4436 44.3067L92.1855 45.1205C91.8748 45.4826 91.5563 45.7512 91.2339 45.9187C90.9115 46.0861 90.5075 46.1718 90.022 46.1718C89.2334 46.1718 88.6042 45.8953 88.1303 45.3463C87.6603 44.7973 87.4233 43.9173 87.4233 42.7103C87.4233 41.6279 87.6447 40.7829 88.0837 40.1755C88.5226 39.5681 89.1208 39.2644 89.8705 39.2644C90.6201 39.2644 91.2378 39.5603 91.6689 40.1561C92.1001 40.7518 92.3176 41.5461 92.3176 42.539V43.1113H92.3215ZM91.1717 42.1652C91.1484 41.7641 91.094 41.4604 91.0125 41.2463C90.7911 40.6778 90.4143 40.3936 89.8744 40.3936C89.3344 40.3936 88.946 40.6778 88.7246 41.2463C88.6352 41.476 88.5848 41.7836 88.577 42.1652H91.1717Z" fill="black"/>
<path d="M96.1243 46.09H95.4057C94.8813 46.09 94.4851 45.9148 94.2209 45.5643C93.9568 45.2139 93.8209 44.7661 93.8209 44.2249V36.6128H94.9823V44.1471C94.9823 44.4118 95.0289 44.6104 95.126 44.7389C95.2231 44.8674 95.3824 44.9336 95.6115 44.9336H96.1243V46.09Z" fill="black"/>
<path d="M101.83 42.7103C101.83 43.3333 101.78 43.8511 101.683 44.2678C101.586 44.6844 101.407 45.0543 101.147 45.3736C100.708 45.907 100.129 46.1718 99.4143 46.1718C98.6996 46.1718 98.1363 45.907 97.6935 45.3736C97.4333 45.0543 97.2585 44.6844 97.1575 44.2678C97.0565 43.8511 97.0099 43.3333 97.0099 42.7103C97.0099 42.0873 97.0604 41.5811 97.1575 41.1606C97.2546 40.7401 97.4333 40.3741 97.6935 40.0626C98.1325 39.5292 98.7073 39.2644 99.4143 39.2644C100.121 39.2644 100.704 39.5292 101.147 40.0626C101.403 40.3741 101.582 40.7401 101.683 41.1606C101.78 41.5811 101.83 42.099 101.83 42.7103ZM100.669 42.7103C100.669 41.7875 100.537 41.1723 100.269 40.8608C100.047 40.6038 99.7639 40.4753 99.4143 40.4753C99.0647 40.4753 98.7928 40.6038 98.5714 40.8608C98.3073 41.1723 98.1713 41.7875 98.1713 42.7103C98.1713 43.6331 98.3034 44.2483 98.5714 44.5598C98.8006 44.8245 99.0802 44.9608 99.4143 44.9608C99.7483 44.9608 100.04 44.8284 100.269 44.5598C100.533 44.2483 100.669 43.6331 100.669 42.7103Z" fill="black"/>
<path d="M108.127 42.7103C108.127 44.1042 107.909 45.0582 107.478 45.5721C107.136 45.9732 106.67 46.1718 106.076 46.1718C105.431 46.1718 104.926 45.9148 104.561 45.4008V48.8233H103.4V39.3462H104.538V40.0665C104.918 39.5331 105.427 39.2683 106.064 39.2683C106.662 39.2683 107.136 39.4669 107.474 39.8679C107.905 40.3819 108.123 41.3319 108.123 42.7181L108.127 42.7103ZM106.927 43.5747C106.954 43.3333 106.965 43.0452 106.965 42.7103C106.965 42.3755 106.95 42.0834 106.927 41.8459C106.899 41.6045 106.845 41.3748 106.767 41.1528C106.686 40.9309 106.565 40.7635 106.398 40.6467C106.231 40.5299 106.022 40.4753 105.773 40.4753C105.524 40.4753 105.303 40.5337 105.136 40.6467C104.969 40.7596 104.845 40.9309 104.767 41.1528C104.685 41.3748 104.635 41.6045 104.608 41.8459C104.58 42.0873 104.569 42.3755 104.569 42.7103C104.569 43.0452 104.58 43.3372 104.608 43.5747C104.635 43.8161 104.689 44.0458 104.767 44.2717C104.849 44.4975 104.973 44.6688 105.144 44.7856C105.315 44.9024 105.524 44.9569 105.777 44.9569C106.029 44.9569 106.235 44.8985 106.402 44.7856C106.569 44.6688 106.694 44.4975 106.771 44.2717C106.853 44.0458 106.903 43.8122 106.931 43.5747H106.927Z" fill="black"/>
<path d="M117.896 46.09H116.735V41.9783C116.735 41.4721 116.626 41.0944 116.412 40.8452C116.195 40.596 115.915 40.4714 115.573 40.4714C115.231 40.4714 114.956 40.596 114.726 40.8452C114.493 41.0944 114.381 41.4488 114.381 41.9121V46.09H113.219V41.9783C113.219 41.4721 113.114 41.0944 112.901 40.8452C112.687 40.596 112.407 40.4714 112.058 40.4714C111.708 40.4714 111.421 40.5999 111.199 40.8491C110.974 41.1022 110.865 41.476 110.865 41.9744V46.0861H109.704V39.3384H110.842V40.0159C111.238 39.5097 111.747 39.2566 112.38 39.2566C113.11 39.2566 113.654 39.5837 114.019 40.2417C114.482 39.5837 115.088 39.2566 115.83 39.2566C116.435 39.2566 116.921 39.463 117.286 39.8679C117.694 40.3391 117.9 40.9737 117.9 41.7719V46.0861L117.896 46.09Z" fill="black"/>
<path d="M124.282 43.1113H120.537C120.537 43.7071 120.666 44.1704 120.918 44.5014C121.174 44.8323 121.536 44.9998 122.006 44.9998C122.316 44.9998 122.577 44.9452 122.779 44.8401C122.981 44.735 123.19 44.5559 123.404 44.3067L124.146 45.1205C123.835 45.4826 123.517 45.7512 123.194 45.9187C122.872 46.0861 122.468 46.1718 121.982 46.1718C121.194 46.1718 120.565 45.8953 120.091 45.3463C119.621 44.7973 119.384 43.9173 119.384 42.7103C119.384 41.6279 119.605 40.7829 120.044 40.1755C120.483 39.5681 121.081 39.2644 121.831 39.2644C122.58 39.2644 123.198 39.5603 123.629 40.1561C124.06 40.7518 124.278 41.5461 124.278 42.539V43.1113H124.282ZM123.132 42.1652C123.109 41.7641 123.054 41.4604 122.973 41.2463C122.751 40.6778 122.375 40.3936 121.835 40.3936C121.295 40.3936 120.906 40.6778 120.685 41.2463C120.596 41.476 120.545 41.7836 120.537 42.1652H123.132Z" fill="black"/>
<path d="M130.501 46.09H129.339V41.9783C129.339 41.4721 129.234 41.0944 129.021 40.8452C128.807 40.596 128.527 40.4714 128.178 40.4714C127.828 40.4714 127.541 40.5999 127.319 40.8491C127.094 41.1022 126.981 41.476 126.981 41.9744V46.0861H125.82V39.3384H126.958V40.0159C127.362 39.5097 127.871 39.2566 128.496 39.2566C129.079 39.2566 129.557 39.463 129.918 39.8679C130.306 40.3118 130.501 40.9465 130.501 41.7719V46.0861V46.09Z" fill="black"/>
<path d="M134.7 46.09H134.004C133.495 46.09 133.103 45.907 132.831 45.5449C132.559 45.1828 132.423 44.7389 132.423 44.2132V40.378H131.763V39.3384H132.423V37.4071H133.585V39.3384H134.7V40.378H133.585V44.1432C133.585 44.6688 133.798 44.9297 134.222 44.9297H134.7V46.0861V46.09Z" fill="black"/>
<path d="M137.469 46.8921L136.148 48.1575V44.552H137.469V46.896V46.8921Z" fill="black"/>
<path d="M147.106 37.4266C147.58 37.9678 147.817 38.657 147.817 39.4903C147.817 40.3235 147.58 41.0088 147.106 41.5461C146.632 42.0834 146.003 42.3521 145.222 42.3521H143.377V46.0939H142.146V36.6167H145.218C145.999 36.6167 146.628 36.8893 147.102 37.4305L147.106 37.4266ZM146.201 40.6545C146.457 40.3741 146.59 39.9886 146.59 39.4903C146.59 38.9919 146.461 38.6064 146.201 38.326C145.941 38.0457 145.595 37.9055 145.152 37.9055H143.377V41.075H145.152C145.591 41.075 145.941 40.9348 146.201 40.6545Z" fill="black"/>
<path d="M153.224 39.903L152.346 40.927C152.09 40.6272 151.798 40.4753 151.48 40.4753C151.161 40.4753 150.882 40.6155 150.66 40.8959C150.439 41.1762 150.33 41.5422 150.33 41.9939V46.0939H149.169V39.3462H150.307V40.0782C150.458 39.8368 150.672 39.6421 150.952 39.4941C151.227 39.3423 151.526 39.2683 151.845 39.2683C152.4 39.2683 152.859 39.4825 153.224 39.9069V39.903Z" fill="black"/>
<path d="M158.371 42.7103C158.371 43.3333 158.32 43.8511 158.223 44.2678C158.126 44.6844 157.947 45.0543 157.687 45.3736C157.248 45.907 156.669 46.1718 155.955 46.1718C155.24 46.1718 154.677 45.907 154.234 45.3736C153.974 45.0543 153.799 44.6844 153.698 44.2678C153.597 43.8511 153.55 43.3333 153.55 42.7103C153.55 42.0873 153.601 41.5811 153.698 41.1606C153.795 40.7401 153.974 40.3741 154.234 40.0626C154.673 39.5292 155.248 39.2644 155.955 39.2644C156.662 39.2644 157.244 39.5292 157.687 40.0626C157.943 40.3741 158.122 40.7401 158.223 41.1606C158.32 41.5811 158.371 42.099 158.371 42.7103ZM157.209 42.7103C157.209 41.7875 157.077 41.1723 156.809 40.8608C156.588 40.6038 156.304 40.4753 155.955 40.4753C155.605 40.4753 155.333 40.6038 155.112 40.8608C154.848 41.1723 154.712 41.7875 154.712 42.7103C154.712 43.6331 154.844 44.2483 155.112 44.5598C155.341 44.8245 155.621 44.9608 155.955 44.9608C156.289 44.9608 156.58 44.8284 156.809 44.5598C157.073 44.2483 157.209 43.6331 157.209 42.7103Z" fill="black"/>
<path d="M164.349 46.051C164.349 46.896 164.127 47.5774 163.684 48.1069C163.242 48.6364 162.64 48.8973 161.878 48.8973C161.439 48.8973 161.063 48.8311 160.756 48.6987C160.449 48.5663 160.142 48.3327 159.839 48.0057L160.581 47.1413C160.946 47.5423 161.362 47.7409 161.832 47.7409C162.302 47.7409 162.636 47.5774 162.857 47.2542C163.079 46.931 163.187 46.5183 163.187 46.0238V45.1594C162.814 45.6734 162.317 45.9303 161.696 45.9303C161.117 45.9303 160.659 45.7318 160.317 45.3307C160.06 45.0309 159.886 44.661 159.8 44.2249C159.715 43.7888 159.668 43.2437 159.668 42.5896C159.668 41.9355 159.711 41.3864 159.8 40.9543C159.889 40.5221 160.06 40.1522 160.317 39.8485C160.651 39.4591 161.113 39.2644 161.707 39.2644C162.337 39.2644 162.842 39.5292 163.222 40.0626V39.3423H164.349V46.051ZM163.148 43.3839C163.176 43.1658 163.187 42.9011 163.187 42.5935C163.187 42.2859 163.176 42.0211 163.148 41.8031C163.121 41.585 163.071 41.367 162.993 41.1489C162.915 40.9309 162.799 40.7635 162.636 40.6505C162.473 40.5376 162.267 40.4792 162.014 40.4792C161.762 40.4792 161.556 40.5376 161.389 40.6505C161.222 40.7674 161.101 40.9309 161.024 41.1489C160.946 41.367 160.896 41.585 160.868 41.807C160.841 42.0289 160.83 42.2898 160.83 42.5935C160.83 42.8972 160.841 43.1581 160.868 43.38C160.896 43.6019 160.946 43.82 161.024 44.038C161.101 44.2561 161.222 44.4235 161.389 44.5364C161.556 44.6532 161.766 44.7077 162.014 44.7077C162.263 44.7077 162.473 44.6493 162.636 44.5364C162.799 44.4196 162.919 44.2561 162.993 44.038C163.071 43.82 163.121 43.6019 163.148 43.3839Z" fill="black"/>
<path d="M170.245 39.903L169.367 40.927C169.111 40.6272 168.82 40.4753 168.501 40.4753C168.183 40.4753 167.903 40.6155 167.682 40.8959C167.46 41.1762 167.351 41.5422 167.351 41.9939V46.0939H166.19V39.3462H167.328V40.0782C167.48 39.8368 167.693 39.6421 167.973 39.4941C168.249 39.3423 168.548 39.2683 168.866 39.2683C169.422 39.2683 169.88 39.4825 170.245 39.9069V39.903Z" fill="black"/>
<path d="M175.326 46.09H174.188V45.4787C173.974 45.7279 173.753 45.9031 173.524 46.0121C173.29 46.1172 173.003 46.1718 172.653 46.1718C171.97 46.1718 171.453 45.9693 171.104 45.5604C170.801 45.1867 170.649 44.7038 170.649 44.1081C170.649 43.5124 170.82 43.0529 171.166 42.6986C171.511 42.3443 172.005 42.1652 172.653 42.1652H174.168V41.6863C174.168 41.2502 174.071 40.9309 173.873 40.7284C173.675 40.5259 173.353 40.4208 172.906 40.4208C172.603 40.4208 172.358 40.4714 172.172 40.5727C171.985 40.6739 171.811 40.8452 171.643 41.0866L170.894 40.2495C171.158 39.8874 171.445 39.6304 171.752 39.4824C172.059 39.3345 172.459 39.2644 172.953 39.2644C174.537 39.2644 175.334 40.0353 175.334 41.5811V46.0939L175.326 46.09ZM174.164 43.6526V43.1074H172.832C172.125 43.1074 171.772 43.4306 171.772 44.0809C171.772 44.7311 172.137 45.0387 172.863 45.0387C173.325 45.0387 173.675 44.9102 173.912 44.6532C174.079 44.4663 174.164 44.1354 174.164 43.6564V43.6526Z" fill="black"/>
<path d="M185.312 46.09H184.151V41.9783C184.151 41.4721 184.042 41.0944 183.829 40.8452C183.611 40.596 183.331 40.4714 182.994 40.4714C182.656 40.4714 182.376 40.596 182.147 40.8452C181.914 41.0944 181.801 41.4488 181.801 41.9121V46.09H180.64V41.9783C180.64 41.4721 180.535 41.0944 180.321 40.8452C180.107 40.596 179.828 40.4714 179.478 40.4714C179.129 40.4714 178.841 40.5999 178.62 40.8491C178.394 41.1022 178.286 41.476 178.286 41.9744V46.0861H177.124V39.3384H178.262V40.0159C178.659 39.5097 179.167 39.2566 179.801 39.2566C180.531 39.2566 181.075 39.5837 181.44 40.2417C181.902 39.5837 182.508 39.2566 183.25 39.2566C183.856 39.2566 184.341 39.463 184.706 39.8679C185.118 40.3391 185.32 40.9737 185.32 41.7719V46.0861L185.312 46.09Z" fill="black"/>
<path d="M195.295 46.09H194.134V41.9783C194.134 41.4721 194.025 41.0944 193.811 40.8452C193.594 40.596 193.314 40.4714 192.976 40.4714C192.638 40.4714 192.359 40.596 192.129 40.8452C191.896 41.0944 191.784 41.4488 191.784 41.9121V46.09H190.622V41.9783C190.622 41.4721 190.517 41.0944 190.304 40.8452C190.09 40.596 189.811 40.4714 189.461 40.4714C189.111 40.4714 188.824 40.5999 188.603 40.8491C188.377 41.1022 188.268 41.476 188.268 41.9744V46.0861H187.107V39.3384H188.245V40.0159C188.641 39.5097 189.15 39.2566 189.783 39.2566C190.514 39.2566 191.057 39.5837 191.423 40.2417C191.885 39.5837 192.491 39.2566 193.233 39.2566C193.839 39.2566 194.324 39.463 194.689 39.8679C195.101 40.3391 195.303 40.9737 195.303 41.7719V46.0861L195.295 46.09Z" fill="black"/>
<path d="M205.282 46.09H204.12V41.9783C204.12 41.4721 204.012 41.0944 203.798 40.8452C203.58 40.596 203.301 40.4714 202.963 40.4714C202.625 40.4714 202.345 40.596 202.116 40.8452C201.883 41.0944 201.77 41.4488 201.77 41.9121V46.09H200.609V41.9783C200.609 41.4721 200.504 41.0944 200.29 40.8452C200.077 40.596 199.797 40.4714 199.448 40.4714C199.098 40.4714 198.811 40.5999 198.589 40.8491C198.364 41.1022 198.255 41.476 198.255 41.9744V46.0861H197.094V39.3384H198.232V40.0159C198.628 39.5097 199.137 39.2566 199.77 39.2566C200.5 39.2566 201.044 39.5837 201.409 40.2417C201.871 39.5837 202.477 39.2566 203.219 39.2566C203.825 39.2566 204.311 39.463 204.676 39.8679C205.088 40.3391 205.29 40.9737 205.29 41.7719V46.0861L205.282 46.09Z" fill="black"/>
<path d="M208.265 38.0107H207.034V36.5739H208.265V38.0107ZM208.23 46.09H207.069V39.3423H208.23V46.09Z" fill="black"/>
<path d="M214.756 46.09H213.594V41.9783C213.594 41.4721 213.489 41.0944 213.276 40.8452C213.062 40.596 212.782 40.4714 212.433 40.4714C212.083 40.4714 211.796 40.5999 211.574 40.8491C211.349 41.1022 211.24 41.476 211.24 41.9744V46.0861H210.079V39.3384H211.217V40.0159C211.621 39.5097 212.13 39.2566 212.755 39.2566C213.338 39.2566 213.816 39.463 214.177 39.8679C214.565 40.3118 214.76 40.9465 214.76 41.7719V46.0861L214.756 46.09Z" fill="black"/>
<path d="M220.947 46.051C220.947 46.896 220.726 47.5774 220.283 48.1069C219.84 48.6364 219.238 48.8973 218.477 48.8973C218.038 48.8973 217.661 48.8311 217.354 48.6987C217.047 48.5663 216.741 48.3327 216.438 48.0057L217.18 47.1413C217.545 47.5423 217.96 47.7409 218.43 47.7409C218.9 47.7409 219.234 47.5774 219.456 47.2542C219.677 46.931 219.786 46.5183 219.786 46.0238V45.1594C219.413 45.6734 218.916 45.9303 218.294 45.9303C217.716 45.9303 217.257 45.7318 216.915 45.3307C216.655 45.0309 216.484 44.661 216.399 44.2249C216.313 43.7888 216.267 43.2437 216.267 42.5896C216.267 41.9355 216.309 41.3864 216.399 40.9543C216.488 40.5221 216.659 40.1522 216.915 39.8485C217.249 39.4591 217.712 39.2644 218.306 39.2644C218.935 39.2644 219.44 39.5292 219.821 40.0626V39.3423H220.947V46.051ZM219.747 43.3839C219.774 43.1658 219.786 42.9011 219.786 42.5935C219.786 42.2859 219.774 42.0211 219.747 41.8031C219.72 41.585 219.669 41.367 219.592 41.1489C219.514 40.9309 219.398 40.7635 219.234 40.6505C219.071 40.5376 218.865 40.4792 218.613 40.4792C218.36 40.4792 218.155 40.5376 217.987 40.6505C217.82 40.7635 217.7 40.9309 217.622 41.1489C217.545 41.367 217.494 41.585 217.467 41.807C217.44 42.0289 217.428 42.2898 217.428 42.5935C217.428 42.8972 217.44 43.1581 217.467 43.38C217.494 43.6019 217.545 43.82 217.622 44.038C217.7 44.2561 217.82 44.4235 217.987 44.5364C218.155 44.6532 218.364 44.7077 218.613 44.7077C218.861 44.7077 219.071 44.6493 219.234 44.5364C219.398 44.4196 219.518 44.2561 219.592 44.038C219.666 43.82 219.72 43.6019 219.747 43.3839Z" fill="black"/>
<path d="M232.391 46.09H230.899L230.239 45.1594C229.578 45.833 228.833 46.1718 227.997 46.1718C227.162 46.1718 226.517 45.9187 226.063 45.4125C225.609 44.9063 225.379 44.221 225.379 43.3489C225.379 42.7531 225.523 42.2547 225.807 41.8498C226.09 41.4449 226.482 41.0516 226.984 40.67C226.817 40.4481 226.684 40.2612 226.591 40.1054C226.494 39.9497 226.397 39.7355 226.296 39.4591C226.195 39.1826 226.141 38.9101 226.141 38.6336C226.141 38.0223 226.323 37.5162 226.688 37.1229C227.053 36.7296 227.531 36.5311 228.122 36.5311C228.712 36.5311 229.155 36.7296 229.512 37.1307C229.87 37.5317 230.048 38.034 230.048 38.6492C230.048 39.3072 229.761 39.864 229.182 40.3274L228.592 40.8063L230.301 43.1892C230.58 42.7259 230.724 42.0951 230.732 41.2852H231.847C231.808 42.5468 231.54 43.5163 231.039 44.2016L232.394 46.09H232.391ZM229.543 44.2016L227.621 41.5266C227.38 41.7213 227.193 41.8848 227.061 42.0172C226.933 42.1496 226.813 42.3326 226.696 42.5623C226.583 42.7921 226.525 43.0452 226.525 43.3216C226.525 43.7927 226.665 44.1782 226.941 44.478C227.217 44.7817 227.57 44.9297 227.994 44.9297C228.557 44.9297 229.069 44.6844 229.543 44.1977V44.2016ZM228.93 38.6648C228.93 38.4 228.852 38.1742 228.7 37.9912C228.549 37.8082 228.355 37.7186 228.118 37.7186C227.881 37.7186 227.683 37.8043 227.535 37.9795C227.391 38.1508 227.318 38.3767 227.318 38.6531C227.318 38.9568 227.527 39.389 227.943 39.9575L228.331 39.6499C228.728 39.3384 228.922 39.0113 228.922 38.6648H228.93Z" fill="black"/>
<path d="M241.682 37.9055H239.448V46.09H238.217V37.9055H235.984V36.6128H241.678V37.9055H241.682Z" fill="black"/>
<path d="M246.634 43.1113H242.89C242.89 43.7071 243.018 44.1704 243.271 44.5014C243.523 44.8323 243.888 44.9998 244.358 44.9998C244.669 44.9998 244.925 44.9452 245.131 44.8401C245.337 44.735 245.543 44.5559 245.757 44.3067L246.498 45.1205C246.188 45.4826 245.869 45.7512 245.547 45.9187C245.224 46.0861 244.82 46.1718 244.335 46.1718C243.546 46.1718 242.913 45.8953 242.443 45.3463C241.973 44.7973 241.736 43.9173 241.736 42.7103C241.736 41.6279 241.958 40.7829 242.397 40.1755C242.836 39.5681 243.434 39.2644 244.183 39.2644C244.933 39.2644 245.551 39.5603 245.982 40.1561C246.413 40.7518 246.631 41.5461 246.631 42.539V43.1113H246.634ZM245.485 42.1652C245.461 41.7641 245.407 41.4604 245.325 41.2463C245.104 40.6778 244.727 40.3936 244.187 40.3936C243.647 40.3936 243.259 40.6778 243.038 41.2463C242.948 41.476 242.898 41.7836 242.89 42.1652H245.485Z" fill="black"/>
<path d="M252.352 45.2139C251.836 45.8525 251.202 46.1718 250.453 46.1718C250.111 46.1718 249.792 46.1056 249.497 45.9771C249.202 45.8486 248.93 45.6539 248.682 45.393C248.437 45.1322 248.239 44.7701 248.095 44.3145C247.951 43.8589 247.877 43.3216 247.877 42.7103C247.877 42.099 247.951 41.5617 248.095 41.1061C248.239 40.6506 248.437 40.2885 248.682 40.0276C248.926 39.7667 249.198 39.572 249.497 39.4474C249.792 39.3228 250.111 39.2605 250.453 39.2605C251.21 39.2605 251.843 39.5759 252.352 40.2067L251.556 41.11C251.373 40.8803 251.202 40.7168 251.039 40.6194C250.876 40.5221 250.682 40.4715 250.453 40.4715C249.998 40.4715 249.641 40.67 249.381 41.0711C249.152 41.4098 249.039 41.9549 249.039 42.7064C249.039 43.4579 249.152 44.0186 249.381 44.3573C249.637 44.7584 249.994 44.9569 250.453 44.9569C250.682 44.9569 250.876 44.9102 251.039 44.809C251.202 44.7116 251.377 44.5481 251.556 44.3184L252.352 45.21V45.2139Z" fill="black"/>
<path d="M258.373 46.09H257.211V41.9783C257.211 41.4721 257.107 41.0944 256.893 40.8452C256.679 40.5961 256.4 40.4715 256.05 40.4715C255.7 40.4715 255.413 40.5999 255.192 40.8491C254.966 41.1022 254.858 41.476 254.858 41.9744V46.0861H253.696V36.6089H254.858V40.0159C255.246 39.5097 255.751 39.2566 256.372 39.2566C256.955 39.2566 257.433 39.463 257.794 39.8679C258.183 40.3118 258.377 40.9465 258.377 41.7719V46.0861L258.373 46.09Z" fill="black"/>
<path d="M264.84 46.09H263.679V41.9783C263.679 41.4721 263.574 41.0944 263.36 40.8452C263.147 40.596 262.867 40.4714 262.517 40.4714C262.168 40.4714 261.88 40.5999 261.659 40.8491C261.434 41.1022 261.325 41.476 261.325 41.9744V46.0861H260.164V39.3384H261.302V40.0159C261.706 39.5097 262.214 39.2566 262.84 39.2566C263.423 39.2566 263.9 39.463 264.262 39.8679C264.65 40.3118 264.844 40.9465 264.844 41.7719V46.0861L264.84 46.09Z" fill="black"/>
<path d="M271.172 42.7103C271.172 43.3333 271.121 43.8511 271.024 44.2678C270.927 44.6844 270.748 45.0543 270.488 45.3736C270.049 45.907 269.47 46.1718 268.756 46.1718C268.041 46.1718 267.478 45.907 267.035 45.3736C266.775 45.0543 266.6 44.6844 266.499 44.2678C266.398 43.8511 266.351 43.3333 266.351 42.7103C266.351 42.0873 266.402 41.5811 266.499 41.1606C266.596 40.7401 266.775 40.3741 267.035 40.0626C267.474 39.5292 268.049 39.2644 268.756 39.2644C269.463 39.2644 270.045 39.5292 270.488 40.0626C270.744 40.3741 270.923 40.7401 271.024 41.1606C271.121 41.5811 271.172 42.099 271.172 42.7103ZM270.01 42.7103C270.01 41.7875 269.878 41.1723 269.61 40.8608C269.389 40.6038 269.105 40.4753 268.756 40.4753C268.406 40.4753 268.134 40.6038 267.913 40.8608C267.649 41.1723 267.513 41.7875 267.513 42.7103C267.513 43.6331 267.645 44.2483 267.913 44.5598C268.142 44.8245 268.422 44.9608 268.756 44.9608C269.09 44.9608 269.381 44.8284 269.61 44.5598C269.874 44.2483 270.01 43.6331 270.01 42.7103Z" fill="black"/>
<path d="M275.009 46.09H274.291C273.766 46.09 273.37 45.9148 273.106 45.5643C272.842 45.2139 272.706 44.7661 272.706 44.2249V36.6128H273.867V44.1471C273.867 44.4118 273.914 44.6104 274.011 44.7389C274.108 44.8674 274.268 44.9336 274.497 44.9336H275.009V46.09Z" fill="black"/>
<path d="M280.712 42.7103C280.712 43.3333 280.661 43.8511 280.564 44.2678C280.467 44.6844 280.288 45.0543 280.028 45.3736C279.589 45.907 279.01 46.1718 278.296 46.1718C277.581 46.1718 277.018 45.907 276.575 45.3736C276.315 45.0543 276.14 44.6844 276.039 44.2678C275.938 43.8511 275.891 43.3333 275.891 42.7103C275.891 42.0873 275.942 41.5811 276.039 41.1606C276.136 40.7401 276.315 40.3741 276.575 40.0626C277.014 39.5292 277.589 39.2644 278.296 39.2644C279.003 39.2644 279.585 39.5292 280.028 40.0626C280.284 40.3741 280.463 40.7401 280.564 41.1606C280.661 41.5811 280.712 42.099 280.712 42.7103ZM279.55 42.7103C279.55 41.7875 279.418 41.1723 279.15 40.8608C278.929 40.6038 278.645 40.4753 278.296 40.4753C277.946 40.4753 277.674 40.6038 277.453 40.8608C277.189 41.1723 277.053 41.7875 277.053 42.7103C277.053 43.6331 277.185 44.2483 277.453 44.5598C277.682 44.8245 277.962 44.9608 278.296 44.9608C278.63 44.9608 278.921 44.8284 279.15 44.5598C279.414 44.2483 279.55 43.6331 279.55 42.7103Z" fill="black"/>
<path d="M286.69 46.051C286.69 46.896 286.468 47.5774 286.025 48.1069C285.583 48.6364 284.981 48.8973 284.219 48.8973C283.78 48.8973 283.404 48.8311 283.097 48.6987C282.79 48.5663 282.483 48.3327 282.18 48.0057L282.922 47.1413C283.287 47.5423 283.703 47.7409 284.173 47.7409C284.643 47.7409 284.977 47.5774 285.198 47.2542C285.419 46.931 285.528 46.5183 285.528 46.0238V45.1594C285.155 45.6734 284.658 45.9303 284.037 45.9303C283.458 45.9303 283 45.7318 282.658 45.3307C282.397 45.0309 282.227 44.661 282.141 44.2249C282.056 43.7888 282.009 43.2437 282.009 42.5896C282.009 41.9355 282.052 41.3864 282.141 40.9543C282.23 40.5221 282.401 40.1522 282.658 39.8485C282.992 39.4591 283.454 39.2644 284.048 39.2644C284.678 39.2644 285.183 39.5292 285.563 40.0626V39.3423H286.69V46.051ZM285.489 43.3839C285.517 43.1658 285.528 42.9011 285.528 42.5935C285.528 42.2859 285.517 42.0211 285.489 41.8031C285.462 41.585 285.412 41.367 285.334 41.1489C285.256 40.9309 285.14 40.7635 284.977 40.6505C284.814 40.5376 284.608 40.4792 284.355 40.4792C284.103 40.4792 283.897 40.5376 283.73 40.6505C283.563 40.7635 283.442 40.9309 283.365 41.1489C283.287 41.367 283.236 41.585 283.209 41.807C283.182 42.0289 283.17 42.2898 283.17 42.5935C283.17 42.8972 283.182 43.1581 283.209 43.38C283.236 43.6019 283.287 43.82 283.365 44.038C283.442 44.2561 283.563 44.4235 283.73 44.5364C283.897 44.6532 284.107 44.7077 284.355 44.7077C284.604 44.7077 284.814 44.6493 284.977 44.5364C285.14 44.4196 285.26 44.2561 285.334 44.038C285.408 43.82 285.462 43.6019 285.489 43.3839Z" fill="black"/>
<path d="M292.897 39.3423L290.345 47.4333C290.24 47.7876 290.096 48.068 289.925 48.2704C289.646 48.5975 289.249 48.7649 288.741 48.7649H288.275V47.5423H288.57C288.814 47.5423 288.989 47.4917 289.106 47.3905C289.222 47.2892 289.319 47.0984 289.401 46.8259L289.719 45.7746L287.703 39.3462H288.935L290.314 44.0964L291.658 39.3462H292.901L292.897 39.3423Z" fill="black"/>
</g>
<defs>
<clipPath id="clip0_6_70">
<rect width="294" height="50" fill="white"/>
</clipPath>
</defs>
</svg>
